<svg width="233" height="16" viewBox="0 0 233 16" fill="none" xmlns="http://www.w3.org/2000/svg">
<path d="M1.96836 7.62H9.18836V9.34H1.96836V7.62ZM2.16836 15H0.168359V0.999999H10.0484V2.74H2.16836V15ZM19.0274 15.16C17.9608 15.16 16.9674 14.98 16.0474 14.62C15.1408 14.26 14.3541 13.76 13.6874 13.12C13.0208 12.4667 12.5008 11.7067 12.1274 10.84C11.7541 9.97333 11.5674 9.02667 11.5674 8C11.5674 6.97333 11.7541 6.02667 12.1274 5.16C12.5008 4.29333 13.0208 3.54 13.6874 2.9C14.3541 2.24667 15.1408 1.74 16.0474 1.38C16.9541 1.02 17.9474 0.84 19.0274 0.84C20.0941 0.84 21.0741 1.02 21.9674 1.38C22.8741 1.72667 23.6608 2.22667 24.3274 2.88C25.0074 3.52 25.5274 4.27333 25.8874 5.14C26.2608 6.00667 26.4474 6.96 26.4474 8C26.4474 9.04 26.2608 9.99333 25.8874 10.86C25.5274 11.7267 25.0074 12.4867 24.3274 13.14C23.6608 13.78 22.8741 14.28 21.9674 14.64C21.0741 14.9867 20.0941 15.16 19.0274 15.16ZM19.0274 13.38C19.8008 13.38 20.5141 13.2467 21.1674 12.98C21.8341 12.7133 22.4074 12.34 22.8874 11.86C23.3808 11.3667 23.7608 10.7933 24.0274 10.14C24.3074 9.48667 24.4474 8.77333 24.4474 8C24.4474 7.22667 24.3074 6.51333 24.0274 5.86C23.7608 5.20667 23.3808 4.64 22.8874 4.16C22.4074 3.66667 21.8341 3.28667 21.1674 3.02C20.5141 2.75333 19.8008 2.62 19.0274 2.62C18.2408 2.62 17.5141 2.75333 16.8474 3.02C16.1941 3.28667 15.6208 3.66667 15.1274 4.16C14.6341 4.64 14.2474 5.20667 13.9674 5.86C13.7008 6.51333 13.5674 7.22667 13.5674 8C13.5674 8.77333 13.7008 9.48667 13.9674 10.14C14.2474 10.7933 14.6341 11.3667 15.1274 11.86C15.6208 12.34 16.1941 12.7133 16.8474 12.98C17.5141 13.2467 18.2408 13.38 19.0274 13.38ZM29.5043 15V0.999999H34.9643C36.191 0.999999 37.2376 1.19333 38.1043 1.58C38.971 1.96667 39.6376 2.52667 40.1043 3.26C40.571 3.99333 40.8043 4.86667 40.8043 5.88C40.8043 6.89333 40.571 7.76667 40.1043 8.5C39.6376 9.22 38.971 9.77333 38.1043 10.16C37.2376 10.5467 36.191 10.74 34.9643 10.74H30.6043L31.5043 9.82V15H29.5043ZM38.8643 15L35.3043 9.92H37.4443L41.0443 15H38.8643ZM31.5043 10.02L30.6043 9.04H34.9043C36.1843 9.04 37.151 8.76667 37.8043 8.22C38.471 7.66 38.8043 6.88 38.8043 5.88C38.8043 4.88 38.471 4.10667 37.8043 3.56C37.151 3.01333 36.1843 2.74 34.9043 2.74H30.6043L31.5043 1.74V10.02ZM49.4066 15V0.999999H55.6866C57.3 0.999999 58.54 1.32667 59.4066 1.98C60.2733 2.62 60.7066 3.5 60.7066 4.62C60.7066 5.38 60.5333 6.02 60.1866 6.54C59.8533 7.06 59.4 7.46 58.8266 7.74C58.2533 8.02 57.6333 8.16 56.9666 8.16L57.3266 7.56C58.1266 7.56 58.8333 7.7 59.4466 7.98C60.06 8.26 60.5466 8.67333 60.9066 9.22C61.2666 9.75333 61.4466 10.42 61.4466 11.22C61.4466 12.42 60.9933 13.3533 60.0866 14.02C59.1933 14.6733 57.86 15 56.0866 15H49.4066ZM51.4066 13.38H56.0066C57.1133 13.38 57.96 13.1933 58.5466 12.82C59.1333 12.4467 59.4266 11.86 59.4266 11.06C59.4266 10.2467 59.1333 9.65333 58.5466 9.28C57.96 8.90667 57.1133 8.72 56.0066 8.72H51.2266V7.1H55.5066C56.52 7.1 57.3066 6.91333 57.8666 6.54C58.4266 6.16667 58.7066 5.60667 58.7066 4.86C58.7066 4.11333 58.4266 3.55333 57.8666 3.18C57.3066 2.80667 56.52 2.62 55.5066 2.62H51.4066V13.38ZM70.3434 15.16C68.5034 15.16 67.0567 14.6333 66.0034 13.58C64.95 12.5267 64.4234 10.9867 64.4234 8.96V0.999999H66.4234V8.88C66.4234 10.44 66.7634 11.58 67.4434 12.3C68.1367 13.02 69.11 13.38 70.3634 13.38C71.63 13.38 72.6034 13.02 73.2834 12.3C73.9767 11.58 74.3234 10.44 74.3234 8.88V0.999999H76.2634V8.96C76.2634 10.9867 75.7367 12.5267 74.6834 13.58C73.6434 14.6333 72.1967 15.16 70.3434 15.16ZM80.3637 15V0.999999H82.3637V15H80.3637ZM86.5551 15V0.999999H88.5551V13.26H96.1351V15H86.5551ZM98.4301 15V0.999999H104.33C105.823 0.999999 107.137 1.29333 108.27 1.88C109.417 2.46667 110.303 3.28667 110.93 4.34C111.57 5.39333 111.89 6.61333 111.89 8C111.89 9.38667 111.57 10.6067 110.93 11.66C110.303 12.7133 109.417 13.5333 108.27 14.12C107.137 14.7067 105.823 15 104.33 15H98.4301ZM100.43 13.26H104.21C105.37 13.26 106.37 13.04 107.21 12.6C108.063 12.16 108.723 11.5467 109.19 10.76C109.657 9.96 109.89 9.04 109.89 8C109.89 6.94667 109.657 6.02667 109.19 5.24C108.723 4.45333 108.063 3.84 107.21 3.4C106.37 2.96 105.37 2.74 104.21 2.74H100.43V13.26ZM114.954 15V0.999999H116.954V15H114.954ZM121.145 15V0.999999H122.785L132.045 12.5H131.185V0.999999H133.185V15H131.545L122.285 3.5H123.145V15H121.145ZM143.695 15.16C142.615 15.16 141.622 14.9867 140.715 14.64C139.809 14.28 139.022 13.78 138.355 13.14C137.689 12.4867 137.169 11.7267 136.795 10.86C136.422 9.99333 136.235 9.04 136.235 8C136.235 6.96 136.422 6.00667 136.795 5.14C137.169 4.27333 137.689 3.52 138.355 2.88C139.035 2.22667 139.829 1.72667 140.735 1.38C141.642 1.02 142.642 0.84 143.735 0.84C144.842 0.84 145.855 1.02 146.775 1.38C147.695 1.74 148.475 2.28 149.115 3L147.875 4.24C147.302 3.68 146.675 3.27333 145.995 3.02C145.329 2.75333 144.602 2.62 143.815 2.62C143.015 2.62 142.269 2.75333 141.575 3.02C140.895 3.28667 140.302 3.66 139.795 4.14C139.302 4.62 138.915 5.19333 138.635 5.86C138.369 6.51333 138.235 7.22667 138.235 8C138.235 8.76 138.369 9.47333 138.635 10.14C138.915 10.7933 139.302 11.3667 139.795 11.86C140.302 12.34 140.895 12.7133 141.575 12.98C142.255 13.2467 142.995 13.38 143.795 13.38C144.542 13.38 145.255 13.2667 145.935 13.04C146.629 12.8 147.269 12.4067 147.855 11.86L148.995 13.38C148.302 13.9667 147.489 14.4133 146.555 14.72C145.635 15.0133 144.682 15.16 143.695 15.16ZM147.075 13.12V7.92H148.995V13.38L147.075 13.12ZM164.456 15.16C163.389 15.16 162.402 14.9867 161.496 14.64C160.602 14.28 159.822 13.78 159.156 13.14C158.502 12.4867 157.989 11.7267 157.616 10.86C157.242 9.99333 157.056 9.04 157.056 8C157.056 6.96 157.242 6.00667 157.616 5.14C157.989 4.27333 158.509 3.52 159.176 2.88C159.842 2.22667 160.622 1.72667 161.516 1.38C162.422 1.02 163.409 0.84 164.476 0.84C165.556 0.84 166.549 1.02667 167.456 1.4C168.376 1.76 169.156 2.3 169.796 3.02L168.496 4.28C167.962 3.72 167.362 3.30667 166.696 3.04C166.029 2.76 165.316 2.62 164.556 2.62C163.769 2.62 163.036 2.75333 162.356 3.02C161.689 3.28667 161.109 3.66 160.616 4.14C160.122 4.62 159.736 5.19333 159.456 5.86C159.189 6.51333 159.056 7.22667 159.056 8C159.056 8.77333 159.189 9.49333 159.456 10.16C159.736 10.8133 160.122 11.38 160.616 11.86C161.109 12.34 161.689 12.7133 162.356 12.98C163.036 13.2467 163.769 13.38 164.556 13.38C165.316 13.38 166.029 13.2467 166.696 12.98C167.362 12.7 167.962 12.2733 168.496 11.7L169.796 12.96C169.156 13.68 168.376 14.2267 167.456 14.6C166.549 14.9733 165.549 15.16 164.456 15.16ZM172.649 15V0.999999H178.109C179.335 0.999999 180.382 1.19333 181.249 1.58C182.115 1.96667 182.782 2.52667 183.249 3.26C183.715 3.99333 183.949 4.86667 183.949 5.88C183.949 6.89333 183.715 7.76667 183.249 8.5C182.782 9.22 182.115 9.77333 181.249 10.16C180.382 10.5467 179.335 10.74 178.109 10.74H173.749L174.649 9.82V15H172.649ZM182.009 15L178.449 9.92H180.589L184.189 15H182.009ZM174.649 10.02L173.749 9.04H178.049C179.329 9.04 180.295 8.76667 180.949 8.22C181.615 7.66 181.949 6.88 181.949 5.88C181.949 4.88 181.615 4.10667 180.949 3.56C180.295 3.01333 179.329 2.74 178.049 2.74H173.749L174.649 1.74V10.02ZM189 7.04H196.2V8.74H189V7.04ZM189.18 13.26H197.34V15H187.18V0.999999H197.06V2.74H189.18V13.26ZM200.579 15V0.999999H206.479C207.972 0.999999 209.285 1.29333 210.419 1.88C211.565 2.46667 212.452 3.28667 213.079 4.34C213.719 5.39333 214.039 6.61333 214.039 8C214.039 9.38667 213.719 10.6067 213.079 11.66C212.452 12.7133 211.565 13.5333 210.419 14.12C209.285 14.7067 207.972 15 206.479 15H200.579ZM202.579 13.26H206.359C207.519 13.26 208.519 13.04 209.359 12.6C210.212 12.16 210.872 11.5467 211.339 10.76C211.805 9.96 212.039 9.04 212.039 8C212.039 6.94667 211.805 6.02667 211.339 5.24C210.872 4.45333 210.212 3.84 209.359 3.4C208.519 2.96 207.519 2.74 206.359 2.74H202.579V13.26ZM217.102 15V0.999999H219.102V15H217.102ZM226.073 15V2.74H221.273V0.999999H232.853V2.74H228.053V15H226.073Z" fill="black"/>
</svg>
